<svg width="23" height="22" viewBox="0 0 23 22" fill="none" xmlns="http://www.w3.org/2000/svg">
<path d="M20.6471 16.8024C20.6471 17.1324 20.5738 17.4716 20.418 17.8016C20.2621 18.1316 20.0605 18.4433 19.7946 18.7366C19.3455 19.2316 18.8505 19.5891 18.2913 19.8183C17.7413 20.0474 17.1455 20.1666 16.5038 20.1666C15.5688 20.1666 14.5696 19.9466 13.5155 19.4974C12.4613 19.0483 11.4071 18.4433 10.3621 17.6824C9.29708 16.9033 8.29203 16.0454 7.35548 15.1158C6.42851 14.1826 5.57357 13.1806 4.79798 12.1183C4.04631 11.0733 3.44131 10.0283 3.00131 8.99242C2.56131 7.94742 2.34131 6.94825 2.34131 5.99492C2.34131 5.37159 2.45131 4.77575 2.67131 4.22575C2.89131 3.66659 3.23964 3.15325 3.72548 2.69492C4.31214 2.11742 4.95381 1.83325 5.63214 1.83325C5.88881 1.83325 6.14548 1.88825 6.37464 1.99825C6.61298 2.10825 6.82381 2.27325 6.98881 2.51159L9.11548 5.50909C9.28048 5.73825 9.39964 5.94909 9.48214 6.15075C9.56464 6.34325 9.61048 6.53575 9.61048 6.70992C9.61048 6.92992 9.54631 7.14992 9.41798 7.36075C9.29881 7.57158 9.12464 7.79158 8.90464 8.01158L8.20798 8.73575C8.10714 8.83658 8.06131 8.95575 8.06131 9.10242C8.06131 9.17575 8.07048 9.23992 8.08881 9.31325C8.11631 9.38658 8.14381 9.44158 8.16214 9.49658C8.32714 9.79908 8.61131 10.1933 9.01464 10.6699C9.42714 11.1466 9.86714 11.6324 10.3438 12.1183C10.8388 12.6041 11.3155 13.0533 11.8013 13.4658C12.278 13.8691 12.6721 14.1441 12.9838 14.3091C13.0296 14.3274 13.0846 14.3549 13.1488 14.3824C13.2221 14.4099 13.2955 14.4191 13.378 14.4191C13.5338 14.4191 13.653 14.3641 13.7538 14.2633L14.4505 13.5758C14.6796 13.3466 14.8996 13.1724 15.1105 13.0624C15.3213 12.9341 15.5321 12.8699 15.7613 12.8699C15.9355 12.8699 16.1188 12.9066 16.3205 12.9891C16.5221 13.0716 16.733 13.1908 16.9621 13.3466L19.9963 15.5008C20.2346 15.6658 20.3996 15.8583 20.5005 16.0874C20.5921 16.3166 20.6471 16.5458 20.6471 16.8024Z" stroke="black" stroke-width="1.5" stroke-miterlimit="10"/>
</svg>
