<svg width="27" height="27" viewBox="0 0 27 27" fill="none" xmlns="http://www.w3.org/2000/svg">
<path d="M13.2549 24.0331C19.2381 24.0331 24.0882 19.183 24.0882 13.1998C24.0882 7.21654 19.2381 2.36646 13.2549 2.36646C7.27164 2.36646 2.42155 7.21654 2.42155 13.1998C2.42155 19.183 7.27164 24.0331 13.2549 24.0331Z" stroke="#242A37" stroke-width="1.5" stroke-linecap="round" stroke-linejoin="round"/>
<path d="M8.92155 3.44971H10.0049C7.89242 9.77807 7.89242 16.6213 10.0049 22.9497H8.92155M16.5049 3.44971C18.6173 9.77807 18.6173 16.6213 16.5049 22.9497" stroke="#242A37" stroke-width="1.5" stroke-linecap="round" stroke-linejoin="round"/>
<path d="M3.50488 17.5332V16.4498C9.83325 18.5623 16.6765 18.5623 23.0049 16.4498V17.5332M3.50488 9.94983C9.83325 7.83736 16.6765 7.83736 23.0049 9.94983" stroke="#242A37" stroke-width="1.5" stroke-linecap="round" stroke-linejoin="round"/>
</svg>
