<svg width="25" height="25" viewBox="0 0 25 25" fill="none" xmlns="http://www.w3.org/2000/svg">
<path d="M16.6646 4.10644C18.6046 4.10644 20.1646 5.67644 20.1646 7.60644C20.1646 9.49644 18.6646 11.0364 16.7946 11.1064C16.7082 11.0964 16.621 11.0964 16.5346 11.1064M18.5946 20.1064C19.3146 19.9564 19.9946 19.6664 20.5546 19.2364C22.1146 18.0664 22.1146 16.1364 20.5546 14.9664C20.0046 14.5464 19.3346 14.2664 18.6246 14.1064M9.41461 10.9764C9.31461 10.9664 9.19461 10.9664 9.08461 10.9764C7.93681 10.9375 6.84925 10.4533 6.05224 9.62639C5.25523 8.79952 4.81135 7.69489 4.81461 6.54644C4.81461 4.09644 6.79461 2.10644 9.25461 2.10644C10.4308 2.08522 11.5673 2.53213 12.4141 3.34885C13.2608 4.16557 13.7484 5.2852 13.7696 6.46144C13.7908 7.63767 13.3439 8.77416 12.5272 9.62089C11.7105 10.4676 10.5908 10.9552 9.41461 10.9764ZM4.41461 14.6664C1.99461 16.2864 1.99461 18.9264 4.41461 20.5364C7.16461 22.3764 11.6746 22.3764 14.4246 20.5364C16.8446 18.9164 16.8446 16.2764 14.4246 14.6664C11.6846 12.8364 7.17461 12.8364 4.41461 14.6664Z" stroke="#242A37" stroke-width="1.5" stroke-linecap="round" stroke-linejoin="round"/>
</svg>
