<svg width="27" height="27" viewBox="0 0 27 27" fill="none" xmlns="http://www.w3.org/2000/svg">
<path d="M13.595 4.08838C10.0092 4.08838 7.095 7.00255 7.095 10.5884V13.7192C7.095 14.38 6.81334 15.3875 6.4775 15.9509L5.23167 18.02C4.4625 19.2984 4.99334 20.7175 6.40167 21.1942C11.0708 22.7542 16.1083 22.7542 20.7775 21.1942C22.0883 20.7609 22.6625 19.2117 21.9475 18.02L20.7017 15.9509C20.3767 15.3875 20.095 14.38 20.095 13.7192V10.5884C20.095 7.01338 17.17 4.08838 13.595 4.08838Z" stroke="black" stroke-width="1.5" stroke-miterlimit="10" stroke-linecap="round"/>
<path d="M15.5992 4.40235C14.2892 4.02924 12.9009 4.02924 11.5909 4.40235C11.905 3.60069 12.685 3.03735 13.595 3.03735C14.505 3.03735 15.285 3.60069 15.5992 4.40235Z" stroke="black" stroke-width="1.5" stroke-miterlimit="10" stroke-linecap="round" stroke-linejoin="round"/>
<path d="M16.845 21.5842C16.845 23.3717 15.3825 24.8342 13.595 24.8342C12.7067 24.8342 11.8834 24.4659 11.2984 23.8809C10.6897 23.2713 10.347 22.4457 10.345 21.5842" stroke="black" stroke-width="1.5" stroke-miterlimit="10"/>
</svg>
