<svg width="26" height="26" viewBox="0 0 26 26" fill="none" xmlns="http://www.w3.org/2000/svg">
<path fill-rule="evenodd" clip-rule="evenodd" d="M24.72 5.07261C24.7057 4.36248 24.122 3.79611 23.409 3.80186C23.1359 3.80186 22.8685 3.88811 22.6472 4.04911C21.8939 4.53786 21.0142 4.78798 20.1172 4.76786C18.8637 4.76211 17.2192 4.29636 16.7333 2.97386C16.4602 2.16598 15.7098 1.61686 14.8559 1.59961H11.6359C10.782 1.61686 10.0288 2.16311 9.75279 2.97386C9.26404 4.29636 7.62242 4.76786 6.36604 4.76786C5.46904 4.78798 4.58929 4.53498 3.83604 4.04911C3.61467 3.88811 3.34729 3.80186 3.07704 3.80186C2.36692 3.79611 1.78329 4.36248 1.76892 5.07261C1.51592 16.5554 5.34542 23.1219 13.1453 24.5939C13.174 24.5996 13.2114 24.5996 13.2459 24.5996C13.2804 24.5996 13.3178 24.5996 13.3552 24.5939C15.2527 24.2661 17.0553 23.5186 18.6279 22.4089C18.9355 22.4664 19.246 22.4951 19.5565 22.4951C22.4114 22.4894 24.72 20.175 24.72 17.3201C24.7229 16.2535 24.3923 15.2127 23.7742 14.3416C24.4872 11.7311 24.8005 8.64048 24.72 5.07261ZM19.9245 21.3221C19.8038 21.3365 19.6802 21.3451 19.5565 21.3451C19.1454 21.348 18.7372 21.2819 18.3462 21.1554C17.2824 20.8219 16.4084 20.0571 15.9369 19.0451C15.7615 18.6915 15.6437 18.3091 15.5919 17.9181C15.5574 17.7197 15.5402 17.5214 15.5402 17.3201C15.5402 15.5635 16.6815 14.0081 18.3577 13.4791H18.3634C18.7487 13.3584 19.1512 13.2951 19.5565 13.2951H19.6083C20.7094 13.3095 21.7559 13.7781 22.5005 14.5889C22.8484 14.9597 23.1187 15.3939 23.2969 15.8711C23.4809 16.334 23.5729 16.8227 23.5729 17.3201C23.5729 19.3959 21.9917 21.1324 19.9245 21.3221ZM22.8369 13.3296C22.0003 12.6367 20.9624 12.2256 19.8757 12.1566C20.0482 11.3459 20.1747 10.5265 20.2552 9.70136C20.2753 9.54323 20.2235 9.38798 20.1172 9.27011C20.0165 9.14936 19.867 9.07461 19.7089 9.06886C17.2364 8.96536 15.0428 7.93611 13.6887 6.23986C13.5765 6.10761 13.4127 6.03286 13.2402 6.03286C13.0677 6.03286 12.9038 6.10761 12.7917 6.23986C11.4375 7.93611 9.24392 8.96536 6.77142 9.06886C6.45229 9.08036 6.20792 9.34773 6.21942 9.66686C6.23092 9.98598 6.49829 10.2304 6.81742 10.2189C9.37042 10.1154 11.6733 9.12061 13.2402 7.47036C14.7898 9.04011 16.8512 9.99748 19.0477 10.1729C18.9643 10.86 18.8464 11.5414 18.694 12.2141C16.2072 12.6396 14.3902 14.7959 14.3902 17.3201C14.3902 17.7399 14.439 18.1596 14.5397 18.5679C14.6317 18.9359 14.7639 19.2895 14.9364 19.6259C15.4309 20.6235 16.2359 21.4342 17.2307 21.9374C16.0002 22.6734 14.6489 23.1851 13.2402 23.4439C6.15329 22.0524 2.67454 15.8826 2.91029 5.10136C2.91317 5.04098 2.95054 4.98923 3.00517 4.96623C3.05979 4.94036 3.12304 4.95186 3.16904 4.98636C4.11492 5.61598 5.23042 5.94086 6.36604 5.91786C8.50792 5.91786 10.2559 4.91736 10.8309 3.37061C10.943 3.01698 11.2622 2.76686 11.6359 2.74961H14.8559C15.2268 2.76973 15.543 3.01698 15.6523 3.37061C15.9628 4.16411 16.5464 4.81961 17.2997 5.22211C18.1622 5.69361 19.1339 5.93223 20.1172 5.91786C21.2528 5.94086 22.3683 5.61598 23.3142 4.98636C23.34 4.96336 23.3774 4.95186 23.4119 4.95186C23.4982 4.94898 23.5672 5.01511 23.5729 5.10136C23.6764 7.86423 23.4292 10.63 22.8369 13.3296ZM14.9364 19.6259C14.439 19.8645 13.9187 20.0514 13.381 20.1779C13.289 20.2009 13.197 20.2009 13.105 20.1779C9.75279 19.3614 7.64829 16.8256 6.65929 12.4269C6.59029 12.1192 6.78579 11.8116 7.09342 11.7426C7.40104 11.6736 7.70867 11.8691 7.77767 12.1796C9.03404 17.7801 12.0643 18.7346 13.2402 19.0279C13.6887 18.9215 14.1228 18.7662 14.5397 18.5679C14.6288 18.9359 14.7639 19.2895 14.9364 19.6259ZM18.9068 19.5597C18.7544 19.5597 18.6107 19.4965 18.5014 19.3901L16.854 17.7399C16.647 17.5127 16.6528 17.1649 16.8713 16.9464C17.0869 16.7279 17.4377 16.7221 17.6648 16.9262L18.9068 18.1711L21.4454 15.6267C21.5892 15.4686 21.8048 15.4054 22.0118 15.4571C22.2159 15.5089 22.3769 15.6699 22.4287 15.874C22.4804 16.081 22.4143 16.2966 22.259 16.4404L19.315 19.393C19.2058 19.4994 19.0592 19.5597 18.9068 19.5597Z" fill="#242A37"/>
<path d="M14.5397 18.5679C14.439 18.1596 14.3902 17.7399 14.3902 17.3201C14.3902 14.7959 16.2072 12.6396 18.694 12.2141C18.8464 11.5414 18.9643 10.86 19.0477 10.1729C16.8512 9.99748 14.7898 9.04011 13.2402 7.47036C11.6733 9.12061 9.37042 10.1154 6.81742 10.2189C6.49829 10.2304 6.23092 9.98598 6.21942 9.66686C6.20792 9.34773 6.45229 9.08036 6.77142 9.06886C9.24392 8.96536 11.4375 7.93611 12.7917 6.23986C12.9038 6.10761 13.0677 6.03286 13.2402 6.03286C13.4127 6.03286 13.5765 6.10761 13.6887 6.23986C15.0428 7.93611 17.2364 8.96536 19.7089 9.06886C19.867 9.07461 20.0165 9.14936 20.1172 9.27011C20.2235 9.38798 20.2753 9.54323 20.2552 9.70136C20.1747 10.5265 20.0482 11.3459 19.8757 12.1566C20.9624 12.2256 22.0003 12.6367 22.8369 13.3296C23.4292 10.63 23.6764 7.86423 23.5729 5.10136C23.5672 5.01511 23.4982 4.94898 23.4119 4.95186C23.3774 4.95186 23.34 4.96336 23.3142 4.98636C22.3683 5.61598 21.2528 5.94086 20.1172 5.91786C19.1339 5.93223 18.1622 5.69361 17.2997 5.22211C16.5464 4.81961 15.9628 4.16411 15.6523 3.37061C15.543 3.01698 15.2268 2.76973 14.8559 2.74961H11.6359C11.2622 2.76686 10.943 3.01698 10.8309 3.37061C10.2559 4.91736 8.50792 5.91786 6.36604 5.91786C5.23042 5.94086 4.11492 5.61598 3.16904 4.98636C3.12304 4.95186 3.05979 4.94036 3.00517 4.96623C2.95054 4.98923 2.91317 5.04098 2.91029 5.10136C2.67454 15.8826 6.15329 22.0524 13.2402 23.4439C14.6489 23.1851 16.0002 22.6734 17.2307 21.9374C16.2359 21.4342 15.4309 20.6235 14.9364 19.6259M14.5397 18.5679C14.6317 18.9359 14.7639 19.2895 14.9364 19.6259M14.5397 18.5679C14.1228 18.7662 13.6887 18.9215 13.2402 19.0279C12.0643 18.7346 9.03404 17.7801 7.77767 12.1796C7.70867 11.8691 7.40104 11.6736 7.09342 11.7426C6.78579 11.8116 6.59029 12.1192 6.65929 12.4269C7.64829 16.8256 9.75279 19.3614 13.105 20.1779C13.197 20.2009 13.289 20.2009 13.381 20.1779C13.9187 20.0514 14.439 19.8645 14.9364 19.6259M14.5397 18.5679C14.6288 18.9359 14.7639 19.2895 14.9364 19.6259M24.72 5.07261C24.7057 4.36248 24.122 3.79611 23.409 3.80186C23.1359 3.80186 22.8685 3.88811 22.6472 4.04911C21.8939 4.53786 21.0142 4.78798 20.1172 4.76786C18.8637 4.76211 17.2192 4.29636 16.7333 2.97386C16.4602 2.16598 15.7098 1.61686 14.8559 1.59961H11.6359C10.782 1.61686 10.0288 2.16311 9.75279 2.97386C9.26404 4.29636 7.62242 4.76786 6.36604 4.76786C5.46904 4.78798 4.58929 4.53498 3.83604 4.04911C3.61467 3.88811 3.34729 3.80186 3.07704 3.80186C2.36692 3.79611 1.78329 4.36248 1.76892 5.07261C1.51592 16.5554 5.34542 23.1219 13.1453 24.5939C13.174 24.5996 13.2114 24.5996 13.2459 24.5996C13.2804 24.5996 13.3178 24.5996 13.3552 24.5939C15.2527 24.2661 17.0553 23.5186 18.6279 22.4089C18.9355 22.4664 19.246 22.4951 19.5565 22.4951C22.4114 22.4894 24.72 20.175 24.72 17.3201C24.7229 16.2535 24.3923 15.2127 23.7742 14.3416C24.4872 11.7311 24.8005 8.64048 24.72 5.07261ZM19.9245 21.3221C19.8038 21.3365 19.6802 21.3451 19.5565 21.3451C19.1454 21.348 18.7372 21.2819 18.3462 21.1554C17.2824 20.8219 16.4084 20.0571 15.9369 19.0451C15.7615 18.6915 15.6437 18.3091 15.5919 17.9181C15.5574 17.7197 15.5402 17.5214 15.5402 17.3201C15.5402 15.5635 16.6815 14.0081 18.3577 13.4791H18.3634C18.7487 13.3584 19.1512 13.2951 19.5565 13.2951H19.6083C20.7094 13.3095 21.7559 13.7781 22.5005 14.5889C22.8484 14.9597 23.1187 15.3939 23.2969 15.8711C23.4809 16.334 23.5729 16.8227 23.5729 17.3201C23.5729 19.3959 21.9917 21.1324 19.9245 21.3221ZM18.9068 19.5597C18.7544 19.5597 18.6107 19.4965 18.5014 19.3901L16.854 17.7399C16.647 17.5127 16.6528 17.1649 16.8713 16.9464C17.0869 16.7279 17.4377 16.7221 17.6648 16.9262L18.9068 18.1711L21.4454 15.6267C21.5892 15.4686 21.8048 15.4054 22.0118 15.4571C22.2159 15.5089 22.3769 15.6699 22.4287 15.874C22.4804 16.081 22.4143 16.2966 22.259 16.4404L19.315 19.393C19.2058 19.4994 19.0592 19.5597 18.9068 19.5597Z" stroke="#242A37" stroke-width="0.4"/>
</svg>
