<svg width="24" height="23" viewBox="0 0 24 23" fill="none" xmlns="http://www.w3.org/2000/svg">
<path d="M13.3304 3.36378L15.0171 6.73711C15.2471 7.2067 15.8604 7.65711 16.3779 7.74336L19.435 8.25128C21.39 8.57711 21.85 9.99545 20.4412 11.3946L18.0646 13.7713C17.6621 14.1738 17.4417 14.95 17.5662 15.5059L18.2467 18.4479C18.7833 20.7767 17.5471 21.6775 15.4867 20.4604L12.6212 18.7642C12.1037 18.4575 11.2508 18.4575 10.7237 18.7642L7.85832 20.4604C5.80749 21.6775 4.56166 20.7671 5.09832 18.4479L5.77874 15.5059C5.90332 14.95 5.68291 14.1738 5.28041 13.7713L2.90374 11.3946C1.50457 9.99545 1.95499 8.57711 3.90999 8.25128L6.96707 7.74336C7.47499 7.65711 8.08832 7.2067 8.31832 6.73711L10.005 3.36378C10.925 1.53336 12.42 1.53336 13.3304 3.36378Z" stroke="#242A37" stroke-width="1.5" stroke-linecap="round" stroke-linejoin="round"/>
</svg>
