<svg width="24" height="25" viewBox="0 0 24 25" fill="none" xmlns="http://www.w3.org/2000/svg">
<path d="M18.4698 17.7243L18.8598 20.8843C18.9598 21.7143 18.0698 22.2943 17.3598 21.8643L13.1698 19.3743C12.7098 19.3743 12.2598 19.3443 11.8198 19.2843C12.5778 18.4056 12.9964 17.2847 12.9998 16.1243C12.9998 13.2843 10.5398 10.9843 7.49984 10.9843C6.33984 10.9843 5.26984 11.3143 4.37984 11.8943C4.34984 11.6443 4.33984 11.3943 4.33984 11.1343C4.33984 6.58429 8.28984 2.89429 13.1698 2.89429C18.0498 2.89429 21.9998 6.58429 21.9998 11.1343C21.9998 13.8343 20.6098 16.2243 18.4698 17.7243Z" stroke="black" stroke-width="1.5" stroke-linecap="round" stroke-linejoin="round"/>
<path d="M13 16.1244C13 17.3144 12.56 18.4144 11.82 19.2844C10.83 20.4844 9.26 21.2544 7.5 21.2544L4.89 22.8044C4.45 23.0744 3.89 22.7044 3.95 22.1944L4.2 20.2244C2.86 19.2944 2 17.8044 2 16.1244C2 14.3644 2.94 12.8144 4.38 11.8944C5.27 11.3144 6.34 10.9844 7.5 10.9844C10.54 10.9844 13 13.2844 13 16.1244Z" stroke="black" stroke-width="1.5" stroke-linecap="round" stroke-linejoin="round"/>
</svg>
