<svg width="23" height="25" viewBox="0 0 23 25" fill="none" xmlns="http://www.w3.org/2000/svg">
<path d="M5.84473 10.8943V8.89429C5.84473 5.58429 6.76139 2.89429 11.3447 2.89429C15.9281 2.89429 16.8447 5.58429 16.8447 8.89429V10.8943M11.3447 19.3943C11.9525 19.3943 12.5354 19.1309 12.9652 18.6621C13.395 18.1932 13.6364 17.5573 13.6364 16.8943C13.6364 16.2312 13.395 15.5954 12.9652 15.1265C12.5354 14.6577 11.9525 14.3943 11.3447 14.3943C10.7369 14.3943 10.154 14.6577 9.72427 15.1265C9.2945 15.5954 9.05306 16.2312 9.05306 16.8943C9.05306 17.5573 9.2945 18.1932 9.72427 18.6621C10.154 19.1309 10.7369 19.3943 11.3447 19.3943Z" stroke="#242A37" stroke-width="1.5" stroke-linecap="round" stroke-linejoin="round"/>
<path d="M15.9277 22.8943H6.76107C3.0944 22.8943 2.17773 21.8943 2.17773 17.8943V15.8943C2.17773 11.8943 3.0944 10.8943 6.76107 10.8943H15.9277C19.5944 10.8943 20.5111 11.8943 20.5111 15.8943V17.8943C20.5111 21.8943 19.5944 22.8943 15.9277 22.8943Z" stroke="#242A37" stroke-width="1.5" stroke-linecap="round" stroke-linejoin="round"/>
</svg>
