<svg width="25" height="22" viewBox="0 0 25 22" fill="none" xmlns="http://www.w3.org/2000/svg">
<path d="M14.1448 0.228437C8.20643 0.0651037 3.34143 4.83677 3.34143 10.7284H1.25309C0.728092 10.7284 0.471426 11.3584 0.844759 11.7318L4.09976 14.9984C4.33309 15.2318 4.69476 15.2318 4.92809 14.9984L8.18309 11.7318C8.54476 11.3584 8.28809 10.7284 7.76309 10.7284H5.67476C5.67476 6.17844 9.38476 2.50344 13.9581 2.56177C18.2981 2.6201 21.9498 6.27177 22.0081 10.6118C22.0664 15.1734 18.3914 18.8951 13.8414 18.8951C11.9631 18.8951 10.2248 18.2534 8.84809 17.1684C8.38143 16.8068 7.72809 16.8418 7.30809 17.2618C6.81809 17.7518 6.85309 18.5801 7.40143 19.0001C9.17476 20.4001 11.4031 21.2284 13.8414 21.2284C19.7331 21.2284 24.5048 16.3634 24.3414 10.4251C24.1898 4.95344 19.6164 0.380104 14.1448 0.228437Z" fill="#242A37"/>
</svg>
