<svg width="22" height="22" viewBox="0 0 22 22" fill="none" xmlns="http://www.w3.org/2000/svg">
<path d="M12.8447 14.8947C12.8447 16.5909 12.1068 18.1243 10.9281 19.1689C9.87898 20.1215 8.51182 20.6479 7.09473 20.6447C3.92264 20.6447 1.34473 18.0668 1.34473 14.8947C1.34473 12.2497 3.14639 10.0072 5.58056 9.34595C5.91046 10.1754 6.42839 10.917 7.09357 11.5124C7.75875 12.1077 8.55303 12.5405 9.41389 12.7768C9.89306 12.9109 10.401 12.978 10.9281 12.978C11.4551 12.978 11.9631 12.9109 12.4422 12.7768C12.701 13.4284 12.8447 14.1472 12.8447 14.8947Z" stroke="#242A37" stroke-width="1.5" stroke-linecap="round" stroke-linejoin="round"/>
<path d="M16.6777 7.22778C16.6792 8.48952 16.2652 9.71665 15.4996 10.7196C14.734 11.7225 13.6594 12.4454 12.4419 12.7765C11.9627 12.9107 11.4548 12.9778 10.9277 12.9778C10.4007 12.9778 9.89274 12.9107 9.41357 12.7765C8.19607 12.4454 7.1215 11.7225 6.35589 10.7196C5.59028 9.71665 5.17624 8.48952 5.17774 7.22778C5.17774 4.0557 7.75565 1.47778 10.9277 1.47778C14.0998 1.47778 16.6777 4.0557 16.6777 7.22778Z" stroke="#242A37" stroke-width="1.5" stroke-linecap="round" stroke-linejoin="round"/>
<path d="M20.5111 14.8947C20.5111 18.0668 17.9332 20.6447 14.7611 20.6447C13.344 20.6479 11.9768 20.1215 10.9277 19.1689C12.1065 18.1243 12.8444 16.5909 12.8444 14.8947C12.8444 14.1472 12.7007 13.4284 12.4419 12.7768C14.1957 12.2976 15.614 11.0134 16.2752 9.34595C18.7094 10.0072 20.5111 12.2497 20.5111 14.8947Z" stroke="#242A37" stroke-width="1.5" stroke-linecap="round" stroke-linejoin="round"/>
</svg>
