<svg width="20" height="24" viewBox="0 0 20 24" fill="none" xmlns="http://www.w3.org/2000/svg">
<g clip-path="url(#clip0_7_18094)">
<path d="M10.2134 23.4644C10.0564 23.4644 9.89946 23.4539 9.74249 23.433C8.68551 23.3074 7.74365 22.7841 7.08435 21.9574C6.81225 21.6225 6.86458 21.1202 7.20993 20.8585C7.54481 20.5864 8.04714 20.6492 8.30877 20.9841C8.70644 21.476 9.29249 21.8004 9.92039 21.8737C10.5483 21.9469 11.1971 21.769 11.6995 21.3818C11.8564 21.2667 11.9925 21.1306 12.1181 20.9841C12.3902 20.6492 12.8925 20.5969 13.2169 20.869C13.5518 21.1411 13.6041 21.633 13.332 21.9678C13.1227 22.219 12.8925 22.4492 12.6413 22.6271C11.9506 23.1713 11.103 23.4644 10.2134 23.4644ZM10.2553 19.069C8.54946 19.069 6.83319 18.9748 5.13784 18.7969C3.81923 18.6713 2.58435 18.0748 1.67388 17.1225C0.930859 16.233 0.554115 15.1655 0.575046 14.0771V13.8574C0.616906 13.0097 0.878534 12.2144 1.339 11.5237C1.35993 11.4923 1.39132 11.4609 1.41225 11.4295C1.92505 10.8748 2.29132 10.1841 2.45877 9.46203C2.45877 8.7818 2.45877 8.08063 2.52156 7.36901C2.88784 3.40273 6.80179 0.964355 10.2134 0.964355C13.6983 0.964355 17.6123 3.40273 17.9995 7.34808C18.0309 7.74575 18.0309 8.14342 18.0309 8.5411C18.0309 8.83412 18.0309 9.12715 18.0413 9.42017C18.2088 10.1737 18.575 10.8644 19.0878 11.4295C19.1192 11.4609 19.1402 11.4923 19.1611 11.5237C19.6216 12.2039 19.8832 12.9992 19.925 13.8155V14.0771C19.946 15.1655 19.5692 16.2434 18.8576 17.0806C17.9157 18.0748 16.6809 18.6713 15.3413 18.7864C13.6669 18.9748 11.9611 19.069 10.2553 19.069ZM2.61574 12.4341C2.33319 12.8737 2.16574 13.376 2.14481 13.8888V14.0876C2.14481 14.0981 2.14481 14.0981 2.14481 14.1085C2.12388 14.8202 2.37505 15.5213 2.83551 16.076C3.45295 16.7144 4.33202 17.1434 5.29481 17.2271C8.58086 17.583 11.9088 17.583 15.1948 17.2271C16.1576 17.133 17.0471 16.7144 17.696 16.0341C18.125 15.5109 18.3762 14.8097 18.3657 14.0876V13.8469C18.3448 13.3655 18.1774 12.8737 17.8948 12.4341C17.1936 11.6597 16.7123 10.7074 16.503 9.6818C16.4925 9.6504 16.4925 9.60854 16.4925 9.57715C16.4716 9.22133 16.4716 8.87598 16.4716 8.52017C16.4716 8.17482 16.4716 7.82947 16.4506 7.48412C16.1367 4.43877 13.0181 2.53412 10.2971 2.53412C7.49249 2.53412 4.37388 4.42831 4.08086 7.50505C4.02853 8.16436 4.02853 8.85505 4.02853 9.53528C4.02853 9.58761 4.01807 9.63994 4.0076 9.69226C3.7983 10.7074 3.31691 11.6597 2.61574 12.4341Z" fill="#242A37"/>
</g>
<defs>
<clipPath id="clip0_7_18094">
<rect width="19.3605" height="22.5" fill="white" transform="translate(0.575195 0.964355)"/>
</clipPath>
</defs>
</svg>
