<svg width="81" height="30" viewBox="0 0 81 30" fill="none" xmlns="http://www.w3.org/2000/svg">
<rect width="81" height="30" rx="15" fill="#FFECED"/>
<path d="M24.1566 19.12C23.2766 19.12 22.5206 18.944 21.8886 18.592C21.2646 18.232 20.7846 17.728 20.4486 17.08C20.1126 16.424 19.9446 15.652 19.9446 14.764C19.9446 14.1 20.0406 13.504 20.2326 12.976C20.4246 12.44 20.7006 11.984 21.0606 11.608C21.4206 11.224 21.8606 10.932 22.3806 10.732C22.9086 10.524 23.5006 10.42 24.1566 10.42C24.5966 10.42 25.0286 10.476 25.4526 10.588C25.8766 10.7 26.2486 10.86 26.5686 11.068C26.7366 11.172 26.8486 11.3 26.9046 11.452C26.9606 11.596 26.9726 11.74 26.9406 11.884C26.9086 12.02 26.8406 12.136 26.7366 12.232C26.6406 12.328 26.5166 12.384 26.3646 12.4C26.2206 12.408 26.0606 12.356 25.8846 12.244C25.6366 12.084 25.3686 11.968 25.0806 11.896C24.7926 11.824 24.5006 11.788 24.2046 11.788C23.6366 11.788 23.1566 11.904 22.7646 12.136C22.3726 12.368 22.0766 12.704 21.8766 13.144C21.6766 13.584 21.5766 14.124 21.5766 14.764C21.5766 15.396 21.6766 15.936 21.8766 16.384C22.0766 16.832 22.3726 17.172 22.7646 17.404C23.1566 17.636 23.6366 17.752 24.2046 17.752C24.5086 17.752 24.8086 17.716 25.1046 17.644C25.4006 17.564 25.6806 17.444 25.9446 17.284C26.1206 17.18 26.2766 17.136 26.4126 17.152C26.5566 17.16 26.6766 17.208 26.7726 17.296C26.8686 17.384 26.9326 17.496 26.9646 17.632C26.9966 17.76 26.9886 17.896 26.9406 18.04C26.8926 18.176 26.7966 18.296 26.6526 18.4C26.3326 18.632 25.9486 18.812 25.5006 18.94C25.0606 19.06 24.6126 19.12 24.1566 19.12ZM30.9539 19.12C30.5299 19.12 30.1499 19.04 29.8139 18.88C29.4859 18.712 29.2259 18.488 29.0339 18.208C28.8499 17.928 28.7579 17.612 28.7579 17.26C28.7579 16.828 28.8699 16.488 29.0939 16.24C29.3179 15.984 29.6819 15.8 30.1859 15.688C30.6899 15.576 31.3659 15.52 32.2139 15.52H32.8139V16.384H32.2259C31.7299 16.384 31.3339 16.408 31.0379 16.456C30.7419 16.504 30.5299 16.588 30.4019 16.708C30.2819 16.82 30.2219 16.98 30.2219 17.188C30.2219 17.452 30.3139 17.668 30.4979 17.836C30.6819 18.004 30.9379 18.088 31.2659 18.088C31.5299 18.088 31.7619 18.028 31.9619 17.908C32.1699 17.78 32.3339 17.608 32.4539 17.392C32.5739 17.176 32.6339 16.928 32.6339 16.648V15.268C32.6339 14.868 32.5459 14.58 32.3699 14.404C32.1939 14.228 31.8979 14.14 31.4819 14.14C31.2499 14.14 30.9979 14.168 30.7259 14.224C30.4619 14.28 30.1819 14.376 29.8859 14.512C29.7339 14.584 29.5979 14.604 29.4779 14.572C29.3659 14.54 29.2779 14.476 29.2139 14.38C29.1499 14.276 29.1179 14.164 29.1179 14.044C29.1179 13.924 29.1499 13.808 29.2139 13.696C29.2779 13.576 29.3859 13.488 29.5379 13.432C29.9059 13.28 30.2579 13.172 30.5939 13.108C30.9379 13.044 31.2499 13.012 31.5299 13.012C32.1059 13.012 32.5779 13.1 32.9459 13.276C33.3219 13.452 33.6019 13.72 33.7859 14.08C33.9699 14.432 34.0619 14.888 34.0619 15.448V18.328C34.0619 18.576 34.0019 18.768 33.8819 18.904C33.7619 19.032 33.5899 19.096 33.3659 19.096C33.1419 19.096 32.9659 19.032 32.8379 18.904C32.7179 18.768 32.6579 18.576 32.6579 18.328V17.752H32.7539C32.6979 18.032 32.5859 18.276 32.4179 18.484C32.2579 18.684 32.0539 18.84 31.8059 18.952C31.5579 19.064 31.2739 19.12 30.9539 19.12ZM37.3284 19.096C37.0884 19.096 36.9044 19.032 36.7764 18.904C36.6484 18.768 36.5844 18.576 36.5844 18.328V13.792C36.5844 13.544 36.6484 13.356 36.7764 13.228C36.9044 13.1 37.0844 13.036 37.3164 13.036C37.5484 13.036 37.7284 13.1 37.8564 13.228C37.9844 13.356 38.0484 13.544 38.0484 13.792V14.608L37.9164 14.308C38.0924 13.884 38.3644 13.564 38.7324 13.348C39.1084 13.124 39.5324 13.012 40.0044 13.012C40.4764 13.012 40.8644 13.1 41.1684 13.276C41.4724 13.452 41.7004 13.72 41.8524 14.08C42.0044 14.432 42.0804 14.88 42.0804 15.424V18.328C42.0804 18.576 42.0164 18.768 41.8884 18.904C41.7604 19.032 41.5764 19.096 41.3364 19.096C41.0964 19.096 40.9084 19.032 40.7724 18.904C40.6444 18.768 40.5804 18.576 40.5804 18.328V15.496C40.5804 15.04 40.4924 14.708 40.3164 14.5C40.1484 14.292 39.8844 14.188 39.5244 14.188C39.0844 14.188 38.7324 14.328 38.4684 14.608C38.2124 14.88 38.0844 15.244 38.0844 15.7V18.328C38.0844 18.84 37.8324 19.096 37.3284 19.096ZM47.316 19.12C46.7 19.12 46.164 18.996 45.708 18.748C45.252 18.492 44.9 18.132 44.652 17.668C44.404 17.204 44.28 16.66 44.28 16.036C44.28 15.564 44.348 15.144 44.484 14.776C44.628 14.4 44.832 14.084 45.096 13.828C45.36 13.564 45.68 13.364 46.056 13.228C46.432 13.084 46.852 13.012 47.316 13.012C47.58 13.012 47.864 13.048 48.168 13.12C48.48 13.192 48.772 13.312 49.044 13.48C49.172 13.56 49.256 13.656 49.296 13.768C49.336 13.88 49.344 13.996 49.32 14.116C49.296 14.228 49.244 14.328 49.164 14.416C49.092 14.496 49 14.548 48.888 14.572C48.776 14.588 48.652 14.56 48.516 14.488C48.34 14.384 48.16 14.308 47.976 14.26C47.792 14.204 47.616 14.176 47.448 14.176C47.184 14.176 46.952 14.22 46.752 14.308C46.552 14.388 46.38 14.508 46.236 14.668C46.1 14.82 45.996 15.012 45.924 15.244C45.852 15.476 45.816 15.744 45.816 16.048C45.816 16.64 45.956 17.108 46.236 17.452C46.524 17.788 46.928 17.956 47.448 17.956C47.616 17.956 47.788 17.932 47.964 17.884C48.148 17.836 48.332 17.76 48.516 17.656C48.652 17.584 48.772 17.56 48.876 17.584C48.988 17.608 49.08 17.664 49.152 17.752C49.224 17.832 49.268 17.932 49.284 18.052C49.3 18.164 49.284 18.276 49.236 18.388C49.196 18.5 49.116 18.592 48.996 18.664C48.732 18.824 48.452 18.94 48.156 19.012C47.86 19.084 47.58 19.12 47.316 19.12ZM54.0389 19.12C53.3749 19.12 52.8029 18.996 52.3229 18.748C51.8429 18.5 51.4709 18.148 51.2069 17.692C50.9509 17.236 50.8229 16.696 50.8229 16.072C50.8229 15.464 50.9469 14.932 51.1949 14.476C51.4509 14.02 51.7989 13.664 52.2389 13.408C52.6869 13.144 53.1949 13.012 53.7629 13.012C54.1789 13.012 54.5509 13.08 54.8789 13.216C55.2149 13.352 55.4989 13.548 55.7309 13.804C55.9709 14.06 56.1509 14.372 56.2709 14.74C56.3989 15.1 56.4629 15.508 56.4629 15.964C56.4629 16.108 56.4109 16.22 56.3069 16.3C56.2109 16.372 56.0709 16.408 55.8869 16.408H52.0349V15.544H55.4069L55.2149 15.724C55.2149 15.356 55.1589 15.048 55.0469 14.8C54.9429 14.552 54.7869 14.364 54.5789 14.236C54.3789 14.1 54.1269 14.032 53.8229 14.032C53.4869 14.032 53.1989 14.112 52.9589 14.272C52.7269 14.424 52.5469 14.644 52.4189 14.932C52.2989 15.212 52.2389 15.548 52.2389 15.94V16.024C52.2389 16.68 52.3909 17.172 52.6949 17.5C53.0069 17.82 53.4629 17.98 54.0629 17.98C54.2709 17.98 54.5029 17.956 54.7589 17.908C55.0229 17.852 55.2709 17.76 55.5029 17.632C55.6709 17.536 55.8189 17.496 55.9469 17.512C56.0749 17.52 56.1749 17.564 56.2469 17.644C56.3269 17.724 56.3749 17.824 56.3909 17.944C56.4069 18.056 56.3829 18.172 56.3189 18.292C56.2629 18.412 56.1629 18.516 56.0189 18.604C55.7389 18.78 55.4149 18.912 55.0469 19C54.6869 19.08 54.3509 19.12 54.0389 19.12ZM60.6548 19.12C59.9908 19.12 59.4908 18.932 59.1548 18.556C58.8188 18.172 58.6508 17.612 58.6508 16.876V11.2C58.6508 10.952 58.7148 10.764 58.8428 10.636C58.9708 10.508 59.1548 10.444 59.3948 10.444C59.6348 10.444 59.8188 10.508 59.9468 10.636C60.0828 10.764 60.1508 10.952 60.1508 11.2V16.804C60.1508 17.172 60.2268 17.444 60.3788 17.62C60.5388 17.796 60.7628 17.884 61.0508 17.884C61.1148 17.884 61.1748 17.884 61.2308 17.884C61.2868 17.876 61.3428 17.868 61.3988 17.86C61.5108 17.844 61.5868 17.876 61.6268 17.956C61.6668 18.028 61.6868 18.18 61.6868 18.412C61.6868 18.612 61.6468 18.768 61.5668 18.88C61.4868 18.992 61.3548 19.06 61.1708 19.084C61.0908 19.092 61.0068 19.1 60.9188 19.108C60.8308 19.116 60.7428 19.12 60.6548 19.12Z" fill="#DB5A61"/>
</svg>
