<svg width="61" height="27" viewBox="0 0 61 27" fill="none" xmlns="http://www.w3.org/2000/svg">
<path d="M45.2026 9.09593L51.9121 2.59636L49.5236 2.21062C38.0193 0.352736 26.2049 2.22864 15.9141 7.54528L12.9121 9.09603H45.2026V9.09593Z" fill="#69CCD7"/>
<path d="M43.457 1.5127L30.2461 9.09603H46.1712L52.9961 2.56678L50.5665 2.17928C48.2146 1.80698 45.8398 1.58415 43.457 1.5127Z" fill="#61BDC7"/>
<path d="M56.5269 5.40134L57.5169 3.43729L52.4256 2.5957L45.6376 9.32942H12.9694L8.38203 10.3409C5.64778 10.9439 3.33332 12.7371 2.08008 15.2216V22.0957H54.5471L59.4967 19.1496V10.3114L56.5269 5.40134Z" fill="#4394CC"/>
<path d="M2.08008 15.5957V22.0957H54.1293H54.5471L59.4967 18.8457V15.5957H2.08008Z" fill="#3E89BD"/>
<path d="M12.3585 14.5127C9.06788 14.5196 6.40518 17.1923 6.41212 20.4829C6.41907 23.7736 9.09173 26.4363 12.3824 26.4293C15.6641 26.4224 18.3218 23.7646 18.3288 20.4829C18.3289 17.1864 15.6561 14.5127 12.3585 14.5127Z" fill="#697B8C"/>
<path d="M11.8288 17.7627C10.6317 17.7627 9.66211 18.7333 9.66211 19.9317C9.66211 20.231 9.725 20.526 9.84518 20.7992C10.3262 21.8957 11.6045 22.3945 12.7009 21.9119C13.1982 21.6929 13.5947 21.2959 13.8124 20.7992C13.9327 20.5259 13.9954 20.231 13.9954 19.9317C13.9954 18.7344 13.0259 17.7627 11.8288 17.7627Z" fill="#D0D7DF"/>
<path d="M55.1621 14.5125H59.4954V10.1792H51.9121L55.1621 14.5125Z" fill="#DD381A"/>
<path d="M49.1925 14.5127C45.9019 14.5196 43.2392 17.1923 43.2461 20.4829C43.2531 23.7736 45.9257 26.4363 49.2164 26.4293C52.498 26.4224 55.1558 23.7646 55.1628 20.4829C55.1628 17.1864 52.4901 14.5127 49.1925 14.5127Z" fill="#697B8C"/>
<path d="M49.7467 17.7627C48.5497 17.7627 47.5801 18.7333 47.5801 19.9317C47.5801 20.231 47.6429 20.526 47.7632 20.7992C48.2441 21.8957 49.5225 22.3945 50.6188 21.9119C51.1161 21.6929 51.5126 21.2959 51.7303 20.7992C51.8506 20.5259 51.9134 20.231 51.9134 19.9317C51.9134 18.7344 50.9438 17.7627 49.7467 17.7627Z" fill="#D0D7DF"/>
<path fill-rule="evenodd" clip-rule="evenodd" d="M6.77755 23.4262H1.98905C1.4409 23.4262 0.995993 22.9789 0.996094 22.4254V15.4207C0.997098 15.2656 1.03386 15.1135 1.10335 14.9745C2.48869 12.1686 5.0607 10.1443 8.09841 9.47079L12.5671 8.47013L15.4947 6.89606C26.1412 1.21125 38.3429 -0.803038 50.2327 1.16126L52.6568 1.56757L57.7641 2.42615C57.8614 2.44316 57.9557 2.47422 58.0441 2.51825C58.5347 2.76447 58.7342 3.3658 58.489 3.86016L57.7393 5.37017L60.4374 9.90221C60.4465 9.91768 60.4523 9.93351 60.4583 9.94965C60.4627 9.9617 60.4672 9.97393 60.4732 9.98631C60.4871 10.0152 60.499 10.0433 60.5099 10.0733C60.5536 10.1833 60.5764 10.2994 60.5794 10.4175V19.4235C60.5794 19.7748 60.3966 20.101 60.0978 20.2811L55.1325 23.2831C55.0332 23.3412 54.9249 23.3801 54.8117 23.4002C54.2884 24.3318 53.5247 25.1044 52.6032 25.6367C49.763 27.2778 46.1413 26.2881 44.5137 23.4262H17.0617C16.5373 24.3468 15.7806 25.1093 14.868 25.6367C12.0288 27.2778 8.40612 26.2881 6.77755 23.4262ZM10.3319 24.0728C12.3349 24.9604 14.6735 24.0437 15.5553 22.0254C15.7749 21.521 15.8891 20.9757 15.891 20.4243C15.894 18.8383 14.9645 17.4004 13.5235 16.7619C11.5206 15.8743 9.18095 16.7909 8.30008 18.8093C7.41921 20.8276 8.3289 23.1852 10.3319 24.0728ZM53.2927 22.0254C52.4108 24.0437 50.0722 24.9604 48.0692 24.0728C46.0662 23.1852 45.1565 20.8276 46.0374 18.8093C46.9183 16.7909 49.2579 15.8743 51.2609 16.7619C52.7018 17.4004 53.6313 18.8383 53.6283 20.4243C53.6263 20.9757 53.5121 21.521 53.2927 22.0254ZM56.1107 13.4196H58.5933V11.4183H54.6211L56.1107 13.4196ZM38.5882 2.51201C42.3727 2.30789 46.1692 2.51798 49.9091 3.13945L50.4304 3.22749L45.2734 8.41592H37.75L38.5882 2.51201ZM46.3858 10.1245C46.2001 10.3126 45.9469 10.4177 45.6837 10.4177C45.6837 10.4177 37.4652 10.4177 37.4652 10.4178L35.9052 21.4251H43.786C43.7815 21.4053 43.7811 21.3851 43.7808 21.365C43.7805 21.3496 43.7802 21.3342 43.7781 21.319C43.7305 21.0228 43.7047 20.7246 43.7026 20.4244C43.7026 17.1082 46.37 14.4204 49.661 14.4204C52.952 14.4204 55.6193 17.1082 55.6193 20.4244C55.6193 20.464 55.618 20.5035 55.6168 20.543C55.6156 20.5825 55.6143 20.622 55.6143 20.6615L58.5935 18.8573V15.421H55.6143C55.3016 15.421 55.0077 15.2729 54.82 15.0208L51.8408 11.0181C51.7116 10.8449 51.6421 10.6338 51.6421 10.4177C51.6421 9.86532 52.087 9.417 52.6352 9.417H57.8328L55.7514 5.92965C55.5766 5.63647 55.5617 5.27327 55.7137 4.96703L56.1109 4.17747L52.8337 3.62613L46.3858 10.1245ZM36.56 2.6524L35.7427 8.41625H16.8896C23.0118 5.22511 29.694 3.26679 36.56 2.6524ZM4.96775 17.4223H2.98164V21.4249H6.04415C6.03966 21.4051 6.03929 21.385 6.03892 21.3649C6.03864 21.3495 6.03835 21.3341 6.03622 21.3189C5.98862 21.0227 5.96281 20.7244 5.9608 20.4243C5.9608 17.1081 8.62812 14.4203 11.9191 14.4203C15.2101 14.4203 17.8774 17.1081 17.8774 20.4243C17.8745 20.7235 17.8497 21.0227 17.802 21.3189C17.7941 21.3539 17.7941 21.3899 17.7941 21.4249H33.8984L35.4546 10.4176H13.0214L8.52588 11.4243C6.24883 11.9316 4.28954 13.3826 3.12767 15.4209H4.96775V17.4223Z" fill="black"/>
<rect x="26.9961" y="12.3457" width="4.33333" height="2.16667" fill="black"/>
</svg>
