<svg width="27" height="25" viewBox="0 0 27 25" fill="none" xmlns="http://www.w3.org/2000/svg">
<path d="M17.9455 2.72211H9.05664L9.55221 1.31767C9.63045 1.09248 9.82346 0.944336 10.0321 0.944336H16.97C17.1787 0.944336 17.3717 1.09248 17.45 1.31767L17.9455 2.72211Z" fill="black"/>
<path fill-rule="evenodd" clip-rule="evenodd" d="M1.32433 12.6004C0.561659 14.2397 0.166992 16.0252 0.166992 17.8305V21.7586C0.166992 22.044 0.406992 22.2775 0.700326 22.2775H26.3003C26.5937 22.2775 26.8337 22.044 26.8337 21.7586V17.8305C26.8337 16.0247 26.439 14.2397 25.6763 12.5999L25.4843 12.19L26.5883 11.505C26.743 11.4116 26.8337 11.2456 26.8337 11.0691V10.6229C26.8337 10.3375 26.5937 10.104 26.3003 10.104H24.4763C24.0657 9.31003 23.6017 8.54205 23.079 7.81039L21.463 5.59465C20.967 4.90969 20.151 4.49976 19.287 4.49976H18.8337H7.71366C6.84966 4.49976 6.03366 4.90969 5.53766 5.59465L3.92166 7.81039C3.39899 8.54205 2.93499 9.31003 2.52433 10.104H0.700326C0.406992 10.104 0.166992 10.3375 0.166992 10.6229V11.0691C0.166992 11.2456 0.257659 11.4116 0.412326 11.5055L1.51633 12.1905L1.32433 12.6004ZM25.1973 16.938C25.1599 16.5021 25.1013 16.0663 25.0106 15.6356C24.8826 15.0129 24.1946 14.6445 23.5866 14.8676L19.8266 16.2531C18.7226 16.6578 19.0746 18.3183 20.2586 18.2561L24.1893 18.0589C24.7813 18.0277 25.2453 17.514 25.1973 16.938ZM9.15799 21.2396H17.8407C18.5287 21.2396 18.5287 20.2018 17.8407 20.2018H9.15799C8.46999 20.2018 8.46999 21.2396 9.15799 21.2396ZM1.80353 16.938C1.75553 17.514 2.21953 18.0282 2.81153 18.0589L6.7422 18.2561C7.92087 18.3183 8.28353 16.6578 7.1742 16.2531L3.4142 14.8676C2.8062 14.6445 2.1182 15.0129 1.9902 15.6356C1.89953 16.0663 1.84087 16.5021 1.80353 16.938ZM19.7242 6.79361L23.4415 11.8997H3.55887L7.2762 6.79361C7.37753 6.65869 7.53753 6.57566 7.71353 6.57566H19.2869C19.4629 6.57566 19.6229 6.65869 19.7242 6.79361Z" fill="black"/>
<path d="M4.611 22.2776V24.2776C4.611 24.6443 4.411 24.9443 4.16656 24.9443H2.38878C2.14434 24.9443 1.94434 24.6443 1.94434 24.2776V22.2776H4.611Z" fill="black"/>
<path d="M25.945 22.2776V24.2776C25.945 24.6443 25.745 24.9443 25.5005 24.9443H23.7228C23.4783 24.9443 23.2783 24.6443 23.2783 24.2776V22.2776H25.945Z" fill="black"/>
</svg>
