<svg width="43" height="37" viewBox="0 0 43 37" fill="none" xmlns="http://www.w3.org/2000/svg">
<rect x="0.230469" y="0.958984" width="42" height="36" rx="10" fill="#FAC213"/>
<path d="M30.2305 18.959C30.2305 23.927 26.1985 27.959 21.2305 27.959C16.2625 27.959 13.2295 22.955 13.2295 22.955M13.2295 22.955H17.2975M13.2295 22.955V27.455M12.2305 18.959C12.2305 13.991 16.2265 9.95898 21.2305 9.95898C27.2335 9.95898 30.2305 14.963 30.2305 14.963M30.2305 14.963V10.463M30.2305 14.963H26.2345" stroke="black" stroke-linecap="round" stroke-linejoin="round"/>
<path d="M18.7285 20.7065C18.7285 21.674 19.471 22.454 20.3935 22.454H22.276C23.0785 22.454 23.731 21.7715 23.731 20.9315C23.731 20.0165 23.3335 19.694 22.741 19.484L19.7185 18.434C19.126 18.224 18.7285 17.9015 18.7285 16.9865C18.7285 16.1465 19.381 15.464 20.1835 15.464H22.066C22.9885 15.464 23.731 16.244 23.731 17.2115M21.2245 14.459V23.459" stroke="black" stroke-linecap="round" stroke-linejoin="round"/>
</svg>
