<svg width="40" height="39" viewBox="0 0 40 39" fill="none" xmlns="http://www.w3.org/2000/svg">
<circle cx="19.8968" cy="19.5946" r="19.139" fill="#FAC213" fill-opacity="0.14"/>
<path fill-rule="evenodd" clip-rule="evenodd" d="M28.4025 23.8255V26.3865C28.4045 26.8673 28.2033 27.3266 27.8483 27.6516C27.4934 27.9766 27.0176 28.1372 26.5378 28.0939C23.9057 27.8085 21.3773 26.9108 19.1559 25.4731C17.0891 24.1624 15.3369 22.4136 14.0236 20.351C12.578 18.1239 11.6783 15.5882 11.3976 12.9495C11.3544 12.4722 11.5141 11.9987 11.8379 11.6447C12.1617 11.2908 12.6196 11.0889 13.0998 11.0885H15.6659C16.5246 11.08 17.2565 11.7082 17.3767 12.5568C17.485 13.3764 17.6859 14.1811 17.9755 14.9557C18.2105 15.5796 18.0601 16.283 17.5905 16.7569L16.5042 17.8411C17.7219 19.9784 19.495 21.748 21.6365 22.9632L22.7228 21.8791C23.1977 21.4104 23.9025 21.2604 24.5277 21.4949C25.3037 21.7839 26.1101 21.9844 26.9313 22.0925C27.7914 22.2136 28.4241 22.9588 28.4025 23.8255Z" stroke="#FAC213" stroke-width="1.6" stroke-linecap="round" stroke-linejoin="round"/>
</svg>
