<svg width="25" height="24" viewBox="0 0 25 24" fill="none" xmlns="http://www.w3.org/2000/svg">
<rect x="0.451172" width="24" height="24" rx="4" fill="#FAC213"/>
<g clip-path="url(#clip0_37_6384)">
<path d="M10.6503 17.02C10.4168 17.02 10.2 16.9199 10.0416 16.7532L5.98888 12.442C5.67201 12.1084 5.68868 11.5747 6.03058 11.2662C6.37247 10.9576 6.89782 10.966 7.20636 11.3079L10.642 14.9686L17.655 7.29688C17.9468 6.93831 18.4722 6.87994 18.8307 7.1718C19.1893 7.46366 19.2477 7.98901 18.9558 8.34758C18.9391 8.3726 18.9141 8.39761 18.8891 8.42263L11.2674 16.7615C11.109 16.9199 10.8921 17.02 10.6503 17.02Z" fill="black"/>
</g>
<defs>
<clipPath id="clip0_37_6384">
<rect width="13.3755" height="10.04" fill="white" transform="translate(5.76367 6.97998)"/>
</clipPath>
</defs>
</svg>
