<svg width="39" height="39" viewBox="0 0 39 39" fill="none" xmlns="http://www.w3.org/2000/svg">
<circle cx="19.1878" cy="19.5946" r="19.139" fill="#FAC213" fill-opacity="0.14"/>
<path d="M24.8486 23.821L25.1899 26.586C25.2774 27.3122 24.4986 27.8197 23.8774 27.4435L20.2111 25.2647C19.8086 25.2647 19.4149 25.2385 19.0299 25.186C19.6931 24.4171 20.0593 23.4364 20.0624 22.421C20.0624 19.936 17.9099 17.9235 15.2499 17.9235C14.2349 17.9235 13.2986 18.2122 12.5199 18.7197C12.4936 18.501 12.4849 18.2822 12.4849 18.0547C12.4849 14.0735 15.9411 10.8447 20.2111 10.8447C24.4811 10.8447 27.9374 14.0735 27.9374 18.0547C27.9374 20.4172 26.7211 22.5085 24.8486 23.821Z" stroke="#FAC213" stroke-width="1.5" stroke-linecap="round" stroke-linejoin="round"/>
<path d="M20.0625 22.4211C20.0625 23.4623 19.6775 24.4248 19.03 25.1861C18.1638 26.2361 16.79 26.9098 15.25 26.9098L12.9663 28.2661C12.5813 28.5023 12.0913 28.1786 12.1438 27.7323L12.3625 26.0086C11.19 25.1948 10.4375 23.8911 10.4375 22.4211C10.4375 20.8811 11.26 19.5248 12.52 18.7198C13.2988 18.2123 14.235 17.9236 15.25 17.9236C17.91 17.9236 20.0625 19.9361 20.0625 22.4211Z" stroke="#FAC213" stroke-width="1.5" stroke-linecap="round" stroke-linejoin="round"/>
</svg>
