<svg width="23" height="23" viewBox="0 0 23 23" fill="none" xmlns="http://www.w3.org/2000/svg">
<path d="M19.4604 19.0313L17.7604 17.3313M10.5354 18.1813C11.5959 18.1813 12.6459 17.9724 13.6256 17.5666C14.6053 17.1608 15.4955 16.566 16.2453 15.8161C16.9952 15.0663 17.59 14.1761 17.9958 13.1964C18.4016 12.2167 18.6104 11.1667 18.6104 10.1063C18.6104 9.04583 18.4016 7.99579 17.9958 7.01608C17.59 6.03638 16.9952 5.1462 16.2453 4.39636C15.4955 3.64653 14.6053 3.05173 13.6256 2.64592C12.6459 2.24012 11.5959 2.03125 10.5354 2.03125C8.39383 2.03125 6.33992 2.88201 4.82556 4.39636C3.31121 5.91072 2.46045 7.96463 2.46045 10.1063C2.46045 12.2479 3.31121 14.3018 4.82556 15.8161C6.33992 17.3305 8.39383 18.1813 10.5354 18.1813Z" stroke="#17191B" stroke-width="1.5" stroke-linecap="round" stroke-linejoin="round"/>
</svg>
