<svg width="26" height="25" viewBox="0 0 26 25" fill="none" xmlns="http://www.w3.org/2000/svg">
<path d="M19.2436 10.4256C19.2436 14.5756 15.0603 19.5656 13.356 21.4256C12.9738 21.8356 12.3128 21.8356 11.9306 21.4256C10.2263 19.5656 6.04297 14.5756 6.04297 10.4256C6.04297 6.89564 8.99711 4.03564 12.6433 4.03564C16.2895 4.03564 19.2436 6.89564 19.2436 10.4256Z" fill="#FAC213" stroke="#FAC213" stroke-width="1.2" stroke-miterlimit="10" stroke-linecap="round" stroke-linejoin="round"/>
<path d="M12.6325 12.9857C14.0929 12.9857 15.2768 11.8396 15.2768 10.4257C15.2768 9.01187 14.0929 7.86572 12.6325 7.86572C11.1722 7.86572 9.98828 9.01187 9.98828 10.4257C9.98828 11.8396 11.1722 12.9857 12.6325 12.9857Z" fill="white"/>
</svg>
