<svg width="60" height="60" viewBox="0 0 60 60" fill="none" xmlns="http://www.w3.org/2000/svg">
<rect x="0.160156" y="0.958984" width="59.2441" height="58.1167" rx="10" fill="#FAC213"/>
<g clip-path="url(#clip0_7_19063)">
<path d="M34.7007 41.1584H24.8641C21.0957 41.1584 18.0332 38.0317 18.0332 34.1844V25.8505C18.0332 22.0031 21.0957 18.8765 24.8641 18.8765H34.7007C38.4691 18.8765 41.5316 22.0031 41.5316 25.8505V34.196C41.5316 38.0317 38.4691 41.1584 34.7007 41.1584ZM24.8641 20.62C22.0407 20.62 19.7409 22.9679 19.7409 25.8505V34.196C19.7409 37.0786 22.0407 39.4265 24.8641 39.4265H34.7007C37.5241 39.4265 39.8239 37.0786 39.8239 34.196V33.8706H36.0668C33.9037 33.8706 32.1504 32.0806 32.1504 29.8721C32.1504 27.6753 33.9037 25.8737 36.0668 25.8737L39.8239 25.8505C39.8239 22.9679 37.5241 20.62 34.7007 20.62H24.8641ZM36.0668 27.6056C34.8487 27.6056 33.8582 28.6168 33.8582 29.8605C33.8582 31.1042 34.8487 32.1154 36.0668 32.1154H39.8239V27.6056H36.0668ZM36.5905 30.6625H36.2376C35.7708 30.6625 35.3837 30.2673 35.3837 29.7908C35.3837 29.3142 35.7708 28.919 36.2376 28.919H36.5905C37.0573 28.919 37.4444 29.3142 37.4444 29.7908C37.4444 30.2673 37.0573 30.6625 36.5905 30.6625ZM30.1922 25.897H24.0444C23.5776 25.897 23.1906 25.5018 23.1906 25.0252C23.1906 24.5487 23.5776 24.1535 24.0444 24.1535H30.1922C30.659 24.1535 31.0461 24.5487 31.0461 25.0252C31.0461 25.5018 30.6704 25.897 30.1922 25.897Z" fill="black"/>
</g>
<defs>
<clipPath id="clip0_7_19063">
<rect width="23.4984" height="22.2819" fill="white" transform="translate(18.0332 18.8765)"/>
</clipPath>
</defs>
</svg>
