<svg width="19" height="20" viewBox="0 0 19 20" fill="none" xmlns="http://www.w3.org/2000/svg">
<path d="M18.1592 18.5L12.4925 12.8333M14.3814 8.11111C14.3814 9.41867 13.9937 10.6969 13.2672 11.784C12.5408 12.8712 11.5083 13.7186 10.3003 14.219C9.09223 14.7194 7.76296 14.8503 6.48053 14.5952C5.1981 14.3401 4.02011 13.7105 3.09553 12.7859C2.17095 11.8613 1.5413 10.6833 1.28621 9.40087C1.03112 8.11844 1.16204 6.78917 1.66242 5.58115C2.1628 4.37313 3.01017 3.34061 4.09736 2.61417C5.18455 1.88773 6.46274 1.5 7.77029 1.5C9.52367 1.5 11.2052 2.19653 12.4451 3.43635C13.6849 4.67617 14.3814 6.35774 14.3814 8.11111Z" stroke="#50555C" stroke-width="1.5" stroke-linecap="round" stroke-linejoin="round"/>
</svg>
