<svg width="14" height="18" viewBox="0 0 14 18" fill="none" xmlns="http://www.w3.org/2000/svg">
<path d="M13.7831 5.9481C12.9855 2.22957 9.92462 0.55542 7.23586 0.55542H7.22827C4.54711 0.55542 1.47859 2.22152 0.681078 5.94005C-0.207578 10.0932 2.19255 13.6105 4.36482 15.824C5.13478 16.6137 6.16431 17.0553 7.23586 17.0554C8.26883 17.0554 9.3018 16.6449 10.0993 15.824C12.2716 13.6105 14.6717 10.1013 13.7831 5.9481ZM7.23586 9.98054C6.92167 9.98054 6.61056 9.91496 6.32028 9.78755C6.03 9.66013 5.76625 9.47338 5.54409 9.23795C5.32192 9.00252 5.14569 8.72302 5.02545 8.41542C4.90521 8.10781 4.84333 7.77813 4.84333 7.44518C4.84333 7.11223 4.90521 6.78254 5.02545 6.47493C5.14569 6.16733 5.32192 5.88783 5.54409 5.6524C5.76625 5.41697 6.03 5.23022 6.32028 5.1028C6.61056 4.97539 6.92167 4.90981 7.23586 4.90981C7.8704 4.90981 8.47895 5.17693 8.92764 5.6524C9.37633 6.12788 9.6284 6.77276 9.6284 7.44518C9.6284 8.1176 9.37633 8.76248 8.92764 9.23795C8.47895 9.71342 7.8704 9.98054 7.23586 9.98054Z" fill="#FAC213"/>
</svg>
