<svg width="41" height="78" viewBox="0 0 41 78" fill="none" xmlns="http://www.w3.org/2000/svg">
<circle cx="20.2305" cy="20.3855" r="20" fill="#FFD428"/>
<circle cx="20.2305" cy="20.3855" r="17" fill="white"/>
<path fill-rule="evenodd" clip-rule="evenodd" d="M20.7305 22.3855C23.21 22.3855 25.2305 20.1438 25.2305 17.3855C25.2305 14.6272 23.21 12.3855 20.7305 12.3855C18.251 12.3855 16.2305 14.6272 16.2305 17.3855C16.2305 20.1438 18.2555 22.3855 20.7305 22.3855ZM20.7305 13.6355C22.472 13.6355 23.8805 15.3022 23.8805 17.3855C23.8805 19.4688 22.472 21.1355 20.7305 21.1355C18.989 21.1355 17.5805 19.4688 17.5805 17.3855C17.5805 15.3022 18.989 13.6355 20.7305 13.6355Z" fill="#FFD428"/>
<path fill-rule="evenodd" clip-rule="evenodd" d="M24.5244 22.3885C24.1809 22.3554 23.8746 22.5972 23.8402 22.9286C23.8059 23.26 24.0565 23.5556 24.4 23.5887C26.3289 23.8074 27.8233 25.3199 27.9575 27.1893H13.5034C13.6504 25.3253 15.1383 23.8194 17.061 23.5887C17.4045 23.5556 17.6551 23.26 17.6207 22.9286C17.5864 22.5972 17.2801 22.3554 16.9366 22.3885C16.891 22.3885 12.2305 22.9006 12.2305 27.7854C12.2305 28.1168 12.5089 28.3855 12.8524 28.3855H28.6085C28.952 28.3855 29.2305 28.1168 29.2305 27.7854C29.2305 22.9006 24.57 22.3885 24.5244 22.3885Z" fill="#FFD428"/>
<path d="M20.7305 41.8855V75.8855" stroke="#FFD428" stroke-width="3" stroke-linecap="square"/>
</svg>
