<svg width="22" height="22" viewBox="0 0 22 22" fill="none" xmlns="http://www.w3.org/2000/svg">
<path fill-rule="evenodd" clip-rule="evenodd" d="M15.4052 14.4435L11.7205 10.776V5.28895C11.7301 5.13654 11.6727 5.00317 11.577 4.89839C11.4717 4.80313 11.3377 4.74597 11.2037 4.74597C11.1941 4.74597 11.1941 4.74597 11.1941 4.74597C11.0506 4.74597 10.9166 4.80312 10.8209 4.90791C10.7156 5.00317 10.6677 5.13654 10.6677 5.27943V10.9951C10.6677 11.1284 10.7252 11.2713 10.8209 11.3571L14.6587 15.177C14.7927 15.3199 14.9937 15.3771 15.1755 15.3294C15.3573 15.2723 15.5009 15.1294 15.5487 14.9484C15.5966 14.7674 15.5392 14.5673 15.4052 14.4435ZM15.4052 14.4435L11.7205 10.776V5.28895C11.7301 5.13654 11.6727 5.00317 11.577 4.89839C11.4717 4.80313 11.3377 4.74597 11.2037 4.74597C11.1941 4.74597 11.1941 4.74597 11.1941 4.74597C11.0506 4.74597 10.9166 4.80312 10.8209 4.90791C10.7156 5.00317 10.6677 5.13654 10.6677 5.27943V10.9951C10.6677 11.1284 10.7252 11.2713 10.8209 11.3571L14.6587 15.177C14.7927 15.3199 14.9937 15.3771 15.1755 15.3294C15.3573 15.2723 15.5009 15.1294 15.5487 14.9484C15.5966 14.7674 15.5392 14.5673 15.4052 14.4435ZM15.4052 14.4435L11.7205 10.776V5.28895C11.7301 5.13654 11.6727 5.00317 11.577 4.89839C11.4717 4.80313 11.3377 4.74597 11.2037 4.74597C11.1941 4.74597 11.1941 4.74597 11.1941 4.74597C11.0506 4.74597 10.9166 4.80312 10.8209 4.90791C10.7156 5.00317 10.6677 5.13654 10.6677 5.27943V10.9951C10.6677 11.1284 10.7252 11.2713 10.8209 11.3571L14.6587 15.177C14.7927 15.3199 14.9937 15.3771 15.1755 15.3294C15.3573 15.2723 15.5009 15.1294 15.5487 14.9484C15.5966 14.7674 15.5392 14.5673 15.4052 14.4435ZM15.4052 14.4435L11.7205 10.776V5.28895C11.7301 5.13654 11.6727 5.00317 11.577 4.89839C11.4717 4.80313 11.3377 4.74597 11.2037 4.74597C11.1941 4.74597 11.1941 4.74597 11.1941 4.74597C11.0506 4.74597 10.9166 4.80312 10.8209 4.90791C10.7156 5.00317 10.6677 5.13654 10.6677 5.27943V10.9951C10.6677 11.1284 10.7252 11.2713 10.8209 11.3571L14.6587 15.177C14.7927 15.3199 14.9937 15.3771 15.1755 15.3294C15.3573 15.2723 15.5009 15.1294 15.5487 14.9484C15.5966 14.7674 15.5392 14.5673 15.4052 14.4435ZM15.4052 14.4435L11.7205 10.776V5.28895C11.7301 5.13654 11.6727 5.00317 11.577 4.89839C11.4717 4.80313 11.3377 4.74597 11.2037 4.74597C11.1941 4.74597 11.1941 4.74597 11.1941 4.74597C11.0506 4.74597 10.9166 4.80312 10.8209 4.90791C10.7156 5.00317 10.6677 5.13654 10.6677 5.27943V10.9951C10.6677 11.1284 10.7252 11.2713 10.8209 11.3571L14.6587 15.177C14.7927 15.3199 14.9937 15.3771 15.1755 15.3294C15.3573 15.2723 15.5009 15.1294 15.5487 14.9484C15.5966 14.7674 15.5392 14.5673 15.4052 14.4435ZM15.4052 14.4435L11.7205 10.776V5.28895C11.7301 5.13654 11.6727 5.00317 11.577 4.89839C11.4717 4.80313 11.3377 4.74597 11.2037 4.74597C11.1941 4.74597 11.1941 4.74597 11.1941 4.74597C11.0506 4.74597 10.9166 4.80312 10.8209 4.90791C10.7156 5.00317 10.6677 5.13654 10.6677 5.27943V10.9951C10.6677 11.1284 10.7252 11.2713 10.8209 11.3571L14.6587 15.177C14.7927 15.3199 14.9937 15.3771 15.1755 15.3294C15.3573 15.2723 15.5009 15.1294 15.5487 14.9484C15.5966 14.7674 15.5392 14.5673 15.4052 14.4435ZM11.2037 0.945068C5.63362 0.945068 1.09717 5.4509 1.09717 10.9951C1.09717 16.5392 5.63362 21.0546 11.2037 21.0546C16.7642 21.0546 21.2911 16.5392 21.2911 10.9951C21.2911 5.4509 16.7642 0.945068 11.2037 0.945068ZM17.5968 17.368C15.922 19.0446 13.5963 20.0067 11.2133 20.0067H11.1846C8.81106 20.0067 6.4854 19.0446 4.80098 17.368C3.08785 15.6628 2.14993 13.4052 2.14993 10.9951C2.14993 6.03199 6.20786 1.99294 11.2037 1.99294H11.2133C13.5963 1.99294 15.922 2.95507 17.5968 4.62213C19.31 6.33682 20.2479 8.5945 20.2383 10.9951C20.2479 13.3671 19.2908 15.6914 17.5968 17.368ZM11.7205 10.776V5.28895C11.7301 5.13654 11.6727 5.00317 11.577 4.89839C11.4717 4.80313 11.3377 4.74597 11.2037 4.74597C11.1941 4.74597 11.1941 4.74597 11.1941 4.74597C11.0506 4.74597 10.9166 4.80312 10.8209 4.90791C10.7156 5.00317 10.6677 5.13654 10.6677 5.27943V10.9951C10.6677 11.1284 10.7252 11.2713 10.8209 11.3571L14.6587 15.177C14.7927 15.3199 14.9937 15.3771 15.1755 15.3294C15.3573 15.2723 15.5009 15.1294 15.5487 14.9484C15.5966 14.7674 15.5392 14.5673 15.4052 14.4435L11.7205 10.776ZM15.4052 14.4435L11.7205 10.776V5.28895C11.7301 5.13654 11.6727 5.00317 11.577 4.89839C11.4717 4.80313 11.3377 4.74597 11.2037 4.74597C11.1941 4.74597 11.1941 4.74597 11.1941 4.74597C11.0506 4.74597 10.9166 4.80312 10.8209 4.90791C10.7156 5.00317 10.6677 5.13654 10.6677 5.27943V10.9951C10.6677 11.1284 10.7252 11.2713 10.8209 11.3571L14.6587 15.177C14.7927 15.3199 14.9937 15.3771 15.1755 15.3294C15.3573 15.2723 15.5009 15.1294 15.5487 14.9484C15.5966 14.7674 15.5392 14.5673 15.4052 14.4435ZM15.4052 14.4435L11.7205 10.776V5.28895C11.7301 5.13654 11.6727 5.00317 11.577 4.89839C11.4717 4.80313 11.3377 4.74597 11.2037 4.74597C11.1941 4.74597 11.1941 4.74597 11.1941 4.74597C11.0506 4.74597 10.9166 4.80312 10.8209 4.90791C10.7156 5.00317 10.6677 5.13654 10.6677 5.27943V10.9951C10.6677 11.1284 10.7252 11.2713 10.8209 11.3571L14.6587 15.177C14.7927 15.3199 14.9937 15.3771 15.1755 15.3294C15.3573 15.2723 15.5009 15.1294 15.5487 14.9484C15.5966 14.7674 15.5392 14.5673 15.4052 14.4435ZM15.4052 14.4435L11.7205 10.776V5.28895C11.7301 5.13654 11.6727 5.00317 11.577 4.89839C11.4717 4.80313 11.3377 4.74597 11.2037 4.74597C11.1941 4.74597 11.1941 4.74597 11.1941 4.74597C11.0506 4.74597 10.9166 4.80312 10.8209 4.90791C10.7156 5.00317 10.6677 5.13654 10.6677 5.27943V10.9951C10.6677 11.1284 10.7252 11.2713 10.8209 11.3571L14.6587 15.177C14.7927 15.3199 14.9937 15.3771 15.1755 15.3294C15.3573 15.2723 15.5009 15.1294 15.5487 14.9484C15.5966 14.7674 15.5392 14.5673 15.4052 14.4435ZM15.4052 14.4435L11.7205 10.776V5.28895C11.7301 5.13654 11.6727 5.00317 11.577 4.89839C11.4717 4.80313 11.3377 4.74597 11.2037 4.74597C11.1941 4.74597 11.1941 4.74597 11.1941 4.74597C11.0506 4.74597 10.9166 4.80312 10.8209 4.90791C10.7156 5.00317 10.6677 5.13654 10.6677 5.27943V10.9951C10.6677 11.1284 10.7252 11.2713 10.8209 11.3571L14.6587 15.177C14.7927 15.3199 14.9937 15.3771 15.1755 15.3294C15.3573 15.2723 15.5009 15.1294 15.5487 14.9484C15.5966 14.7674 15.5392 14.5673 15.4052 14.4435ZM15.4052 14.4435L11.7205 10.776V5.28895C11.7301 5.13654 11.6727 5.00317 11.577 4.89839C11.4717 4.80313 11.3377 4.74597 11.2037 4.74597C11.1941 4.74597 11.1941 4.74597 11.1941 4.74597C11.0506 4.74597 10.9166 4.80312 10.8209 4.90791C10.7156 5.00317 10.6677 5.13654 10.6677 5.27943V10.9951C10.6677 11.1284 10.7252 11.2713 10.8209 11.3571L14.6587 15.177C14.7927 15.3199 14.9937 15.3771 15.1755 15.3294C15.3573 15.2723 15.5009 15.1294 15.5487 14.9484C15.5966 14.7674 15.5392 14.5673 15.4052 14.4435ZM15.4052 14.4435L11.7205 10.776V5.28895C11.7301 5.13654 11.6727 5.00317 11.577 4.89839C11.4717 4.80313 11.3377 4.74597 11.2037 4.74597C11.1941 4.74597 11.1941 4.74597 11.1941 4.74597C11.0506 4.74597 10.9166 4.80312 10.8209 4.90791C10.7156 5.00317 10.6677 5.13654 10.6677 5.27943V10.9951C10.6677 11.1284 10.7252 11.2713 10.8209 11.3571L14.6587 15.177C14.7927 15.3199 14.9937 15.3771 15.1755 15.3294C15.3573 15.2723 15.5009 15.1294 15.5487 14.9484C15.5966 14.7674 15.5392 14.5673 15.4052 14.4435Z" fill="#747474" stroke="#747474" stroke-width="0.6"/>
</svg>
