<svg width="22" height="22" viewBox="0 0 22 22" fill="none" xmlns="http://www.w3.org/2000/svg">
<path d="M8.20675 19.7664V16.6964C8.20675 15.9164 8.84974 15.2864 9.64343 15.2764H12.5469C13.3406 15.2764 13.9836 15.9164 13.9836 16.6964V19.7764C13.9836 20.4364 14.5161 20.9764 15.1892 20.9964H17.1282C19.0572 20.9964 20.6145 19.4564 20.6145 17.5564V8.83641C20.6044 8.08641 20.2528 7.39641 19.65 6.93641L13.0392 1.68641C11.8839 0.776406 10.2362 0.776406 9.08081 1.68641L2.48011 6.93641C1.87731 7.39641 1.52567 8.09641 1.51562 8.84641V17.5564C1.51562 19.4564 3.08291 20.9964 5.00184 20.9964H6.94086C7.62404 20.9964 8.18665 20.4464 8.18665 19.7664" stroke="#747474" stroke-width="1.5" stroke-linecap="round" stroke-linejoin="round"/>
</svg>
