<svg width="18" height="22" viewBox="0 0 18 22" fill="none" xmlns="http://www.w3.org/2000/svg">
<path d="M9.1529 21.3599C8.67065 21.3599 8.18841 21.3499 7.71621 21.3199C7.46505 21.3199 7.14355 21.3199 6.79192 21.2499C6.06855 21.2099 5.24472 21.0899 4.43093 20.9099C2.7029 20.5699 1.56762 19.8899 1.07533 18.8899C0.874393 18.4899 0.773926 18.0399 0.773926 17.5899C0.773926 17.1399 0.874393 16.6899 1.06528 16.2899C1.68818 15.0599 3.23537 14.4999 4.42089 14.2599C5.22463 14.0899 6.04846 13.9699 6.87229 13.9199C8.35921 13.7899 9.88631 13.7899 11.3933 13.9199C12.2071 13.9799 13.0309 14.0899 13.8347 14.2599C15.6129 14.6299 16.7181 15.2899 17.1903 16.2899C17.5821 17.1099 17.5821 18.0599 17.1903 18.8799C16.708 19.8799 15.5828 20.5599 13.8246 20.9099C13.0309 21.0899 12.1971 21.1999 11.3732 21.2599C10.6499 21.3299 9.89635 21.3599 9.1529 21.3599ZM9.1328 15.3199C8.41949 15.3199 7.70617 15.3499 7.0029 15.4099C6.2293 15.4599 5.47579 15.5699 4.74238 15.7199C3.55687 15.9699 2.69285 16.4199 2.43164 16.9399C2.34122 17.1299 2.29098 17.3499 2.29098 17.5799C2.29098 17.8099 2.34122 18.0299 2.44168 18.2299C2.7029 18.7599 3.52673 19.1899 4.74238 19.4299C5.49589 19.5999 6.24939 19.7099 6.99285 19.7499C7.29425 19.7999 7.50523 19.7999 7.7564 19.7999C8.95196 19.8699 10.1174 19.8499 11.2828 19.7499C12.0464 19.6999 12.7999 19.5899 13.5333 19.4299C14.7791 19.1899 15.5928 18.7599 15.8541 18.2299C16.055 17.8199 16.055 17.3399 15.8541 16.9199C15.6732 16.5499 15.1307 16.0399 13.5534 15.7099C12.8099 15.5499 12.0564 15.4499 11.3029 15.3999C10.5695 15.3599 9.84612 15.3199 9.1328 15.3199ZM9.14285 11.6899C6.0786 11.6899 3.58701 9.20989 3.58701 6.15989C3.58701 3.11989 6.0786 0.639893 9.14285 0.639893C12.2071 0.639893 14.6987 3.11989 14.6987 6.16989C14.6987 9.20989 12.2071 11.6899 9.14285 11.6899ZM9.14285 2.13989C6.91248 2.13989 5.09402 3.94989 5.09402 6.16989C5.09402 8.38989 6.91248 10.1999 9.14285 10.1999C11.3732 10.1999 13.1917 8.38989 13.1917 6.16989C13.1917 3.94989 11.3732 2.13989 9.14285 2.13989Z" fill="#747474"/>
</svg>
